<svg width="26.000000" height="24.624023" viewBox="0 0 26 24.624" fill="none" xmlns="http://www.w3.org/2000/svg" xmlns:xlink="http://www.w3.org/1999/xlink">
	<desc>
			Created with Pixso.
	</desc>
	<defs/>
	<path id="Vector" d="M25.95 12.52L25.93 12.53L22.2 3.25L23.9 3.25C24.21 3.25 24.45 3 24.45 2.7C24.45 2.39 24.21 2.14 23.9 2.14L13.5 2.14L13.5 0.55C13.5 0.24 13.25 0 12.95 0C12.64 0 12.4 0.24 12.4 0.55L12.4 2.14L2 2.14C1.7 2.14 1.45 2.39 1.45 2.69C1.45 3 1.7 3.24 2 3.24L3.77 3.24L0.04 12.52C0.01 12.59 0 12.66 0 12.73C0 15.26 2.05 17.32 4.59 17.32C7.13 17.32 9.18 15.26 9.18 12.73C9.18 12.66 9.17 12.59 9.14 12.52L5.41 3.24L12.4 3.24L12.4 20.33C9.76 20.52 7.7 22.13 7.7 24.07C7.7 24.37 7.95 24.62 8.25 24.62L17.65 24.62C17.95 24.62 18.2 24.37 18.2 24.07C18.2 22.13 16.14 20.52 13.5 20.33L13.5 3.24L20.56 3.24L16.85 12.52C16.82 12.59 16.81 12.66 16.81 12.73C16.81 15.26 18.86 17.32 21.4 17.32C23.94 17.32 26 15.26 26 12.73C25.99 12.66 25.98 12.59 25.95 12.52ZM4.59 16.23C2.88 16.22 1.42 14.98 1.14 13.29L8.01 13.29C7.74 14.97 6.29 16.21 4.59 16.23ZM7.81 12.19L1.38 12.19L4.6 4.17L7.81 12.19ZM16.99 23.51L8.9 23.51C9.31 22.33 10.99 21.41 12.94 21.41C14.89 21.41 16.58 22.33 16.99 23.51ZM21.38 4.17L24.59 12.19L18.15 12.19L21.38 4.17ZM21.38 16.23L21.38 16.23C19.67 16.22 18.22 14.97 17.95 13.29L24.82 13.29C24.54 14.98 23.09 16.22 21.38 16.23Z" fill="#000000" fill-opacity="1.000000" fill-rule="nonzero"/>
</svg>
