<svg width="21.369629" height="27.662292" viewBox="0 0 21.3696 27.6623" fill="none" xmlns="http://www.w3.org/2000/svg" xmlns:xlink="http://www.w3.org/1999/xlink">
	<desc>
			Created with Pixso.
	</desc>
	<defs/>
	<path id="Vector" d="M10.59 14.9C10.62 14.9 10.64 14.9 10.67 14.9C10.68 14.9 10.69 14.9 10.7 14.9C10.72 14.9 10.74 14.9 10.76 14.9C12.28 14.87 13.51 14.28 14.42 13.15C16.43 10.67 16.09 6.41 16.06 6C15.93 2.95 14.62 1.48 13.53 0.8C12.73 0.29 11.79 0.02 10.73 0L10.7 0C10.69 0 10.68 0 10.68 0L10.65 0C10.07 0 8.93 0.1 7.85 0.78C6.75 1.46 5.42 2.92 5.29 6C5.26 6.41 4.92 10.67 6.93 13.15C7.83 14.28 9.06 14.87 10.59 14.9ZM6.68 6.14C6.68 6.12 6.69 6.11 6.69 6.1C6.86 1.99 9.51 1.55 10.64 1.55L10.66 1.55C10.67 1.55 10.69 1.55 10.7 1.55C12.11 1.58 14.5 2.21 14.66 6.1C14.66 6.11 14.66 6.13 14.66 6.14C14.67 6.18 15.03 10.08 13.38 12.13C12.72 12.94 11.85 13.34 10.7 13.35C10.69 13.35 10.68 13.35 10.67 13.35C10.66 13.35 10.66 13.35 10.65 13.35C9.5 13.34 8.62 12.94 7.97 12.13C6.32 10.09 6.68 6.18 6.68 6.14Z" fill="#FFFFFF" fill-opacity="1.000000" fill-rule="nonzero"/>
	<path id="Vector" d="M21.36 21.97C21.36 21.96 21.36 21.96 21.36 21.95C21.36 21.91 21.36 21.86 21.36 21.81C21.33 20.67 21.26 18.02 19 17.17C18.99 17.17 18.96 17.16 18.95 17.16C16.6 16.5 14.65 15.01 14.63 14.99C14.31 14.75 13.88 14.83 13.65 15.18C13.43 15.53 13.51 16.01 13.82 16.26C13.91 16.33 15.98 17.91 18.57 18.65C19.79 19.12 19.92 20.55 19.96 21.85C19.96 21.91 19.96 21.95 19.96 22C19.97 22.51 19.94 23.31 19.85 23.77C19.01 24.29 15.71 26.12 10.68 26.12C5.68 26.12 2.35 24.29 1.51 23.76C1.42 23.3 1.39 22.51 1.4 21.99C1.4 21.95 1.4 21.9 1.4 21.85C1.44 20.54 1.57 19.12 2.79 18.64C5.38 17.91 7.45 16.32 7.54 16.25C7.85 16.01 7.93 15.52 7.71 15.18C7.48 14.83 7.05 14.74 6.73 14.99C6.71 15 4.77 16.49 2.41 17.15C2.39 17.16 2.37 17.16 2.36 17.17C0.1 18.02 0.03 20.67 0 21.8C0 21.85 0 21.9 0 21.95C0 21.95 0 21.96 0 21.96C-0.01 22.26 -0.01 23.79 0.26 24.56C0.31 24.71 0.41 24.83 0.53 24.92C0.69 25.03 4.43 27.66 10.69 27.66C16.95 27.66 20.69 25.03 20.84 24.92C20.96 24.83 21.06 24.71 21.11 24.56C21.37 23.8 21.37 22.27 21.36 21.97Z" fill="#FFFFFF" fill-opacity="1.000000" fill-rule="nonzero"/>
</svg>
