<svg width="67.000000" height="65.901642" viewBox="0 0 67 65.9016" fill="none" xmlns="http://www.w3.org/2000/svg" xmlns:xlink="http://www.w3.org/1999/xlink">
	<desc>
			Created with Pixso.
	</desc>
	<defs/>
	<path id="Vector" d="M66.18 36.69C65.81 35.36 65.46 34.1 65.46 32.95C65.46 31.8 65.81 30.53 66.18 29.2C66.78 27.08 67.39 24.88 66.66 22.75C65.89 20.53 63.99 19.08 62.15 17.67C61.05 16.83 60.01 16.04 59.33 15.17C58.65 14.27 58.16 13.09 57.65 11.83C56.8 9.76 55.93 7.62 53.97 6.27C52.04 4.95 49.64 4.82 47.32 4.7C45.87 4.62 44.5 4.55 43.36 4.2C42.29 3.87 41.18 3.19 40 2.47C38.11 1.31 35.97 0 33.49 0C31.02 0 28.87 1.31 26.99 2.47C25.81 3.19 24.7 3.87 23.63 4.2C22.48 4.55 21.11 4.63 19.67 4.7C17.35 4.82 14.94 4.95 13.02 6.27C11.06 7.62 10.19 9.76 9.34 11.83C8.83 13.09 8.34 14.28 7.65 15.17C6.98 16.04 5.93 16.84 4.83 17.68C2.99 19.08 1.09 20.53 0.33 22.75C-0.4 24.88 0.21 27.08 0.8 29.2C1.18 30.54 1.53 31.8 1.53 32.95C1.53 34.1 1.18 35.36 0.8 36.69C0.21 38.82 -0.4 41.01 0.33 43.15C1.09 45.37 3 46.82 4.83 48.22C5.94 49.06 6.98 49.85 7.65 50.73C8.34 51.62 8.83 52.81 9.34 54.07C10.19 56.14 11.06 58.28 13.02 59.62C14.94 60.95 17.35 61.07 19.67 61.19C21.11 61.27 22.48 61.34 23.63 61.69C24.7 62.02 25.81 62.7 26.98 63.42C28.87 64.58 31.02 65.9 33.49 65.9C35.97 65.9 38.12 64.58 40.01 63.42C41.18 62.7 42.29 62.02 43.36 61.69C44.51 61.34 45.88 61.27 47.32 61.19C49.65 61.07 52.05 60.94 53.97 59.62C55.93 58.28 56.81 56.13 57.65 54.06C58.17 52.81 58.65 51.62 59.33 50.73C60.01 49.85 61.05 49.06 62.15 48.22C63.99 46.82 65.89 45.37 66.66 43.15C67.39 41.01 66.78 38.82 66.18 36.69ZM63.9 42.23C63.42 43.63 61.94 44.76 60.37 45.95C59.17 46.87 57.92 47.82 57.01 48.99C56.09 50.19 55.51 51.62 54.95 53C54.23 54.75 53.55 56.42 52.3 57.27C51.06 58.13 49.17 58.22 47.17 58.33C45.6 58.41 43.99 58.5 42.49 58.95C41.06 59.39 39.74 60.2 38.46 60.99C36.75 62.04 35.14 63.03 33.49 63.03C31.85 63.03 30.24 62.04 28.52 60.99C27.25 60.2 25.93 59.39 24.5 58.95C23 58.5 21.39 58.41 19.82 58.33C17.82 58.22 15.93 58.12 14.69 57.27C13.44 56.42 12.76 54.75 12.04 53C11.48 51.62 10.9 50.19 9.97 48.99C9.07 47.82 7.82 46.87 6.62 45.95C5.05 44.76 3.57 43.63 3.09 42.23C2.64 40.92 3.11 39.24 3.61 37.45C4.02 35.99 4.44 34.48 4.44 32.94C4.44 31.4 4.02 29.9 3.61 28.44C3.11 26.65 2.64 24.97 3.09 23.66C3.57 22.26 5.05 21.13 6.62 19.94C7.82 19.02 9.07 18.07 9.97 16.89C10.9 15.7 11.48 14.27 12.04 12.89C12.76 11.13 13.44 9.47 14.69 8.62C15.93 7.76 17.82 7.67 19.82 7.56C21.39 7.48 23 7.39 24.5 6.93C25.93 6.5 27.25 5.68 28.53 4.9C30.24 3.85 31.85 2.86 33.49 2.86C35.14 2.86 36.75 3.85 38.46 4.9C39.74 5.69 41.06 6.5 42.49 6.94C43.99 7.39 45.6 7.48 47.16 7.56C49.17 7.67 51.06 7.77 52.3 8.62C53.55 9.48 54.23 11.14 54.94 12.89C55.51 14.27 56.09 15.7 57.02 16.9C57.92 18.07 59.17 19.02 60.37 19.94C61.94 21.13 63.42 22.26 63.9 23.67C64.35 24.97 63.87 26.66 63.37 28.44C62.97 29.9 62.54 31.41 62.54 32.95C62.54 34.49 62.96 35.99 63.37 37.45C63.88 39.24 64.35 40.92 63.9 42.23Z" fill="#FFFFFF" fill-opacity="1.000000" fill-rule="nonzero"/>
	<path id="Vector" d="M33.5 10C20.61 10 10.17 20.28 10.17 32.95C10.17 45.62 20.61 55.89 33.5 55.89C46.38 55.89 56.82 45.62 56.82 32.95C56.81 20.28 46.37 10.02 33.5 10ZM33.5 53.71C21.84 53.71 12.39 44.41 12.39 32.95C12.39 21.48 21.84 12.19 33.5 12.19C45.15 12.19 54.6 21.48 54.6 32.95C54.59 44.41 45.15 53.7 33.5 53.71Z" fill="#FFFFFF" fill-opacity="1.000000" fill-rule="nonzero"/>
	<path id="Vector" d="M22.71 42.01L42.71 22.34L44.28 23.89L24.28 43.56L22.71 42.01Z" fill="#FFFFFF" fill-opacity="1.000000" fill-rule="nonzero"/>
	<path id="Vector" d="M40.16 35.13C37.71 35.13 35.72 37.09 35.72 39.5C35.72 41.92 37.71 43.88 40.16 43.88C42.61 43.88 44.6 41.92 44.6 39.5C44.6 37.09 42.61 35.13 40.16 35.13ZM40.16 41.69C38.93 41.69 37.94 40.71 37.94 39.5C37.94 38.3 38.93 37.32 40.16 37.32C41.39 37.32 42.38 38.3 42.38 39.5C42.38 40.71 41.39 41.69 40.16 41.69Z" fill="#FFFFFF" fill-opacity="1.000000" fill-rule="nonzero"/>
	<path id="Vector" d="M26.83 30.76C29.29 30.76 31.27 28.81 31.27 26.39C31.27 23.98 29.29 22.02 26.83 22.02C24.38 22.02 22.39 23.98 22.39 26.39C22.39 28.81 24.38 30.76 26.83 30.76ZM26.83 24.21C28.06 24.21 29.05 25.19 29.05 26.39C29.05 27.6 28.06 28.58 26.83 28.58C25.6 28.58 24.61 27.6 24.61 26.39C24.61 25.19 25.6 24.21 26.83 24.21Z" fill="#FFFFFF" fill-opacity="1.000000" fill-rule="nonzero"/>
</svg>
