<svg width="74.000000" height="77.746094" viewBox="0 0 74 77.7461" fill="none" xmlns="http://www.w3.org/2000/svg" xmlns:xlink="http://www.w3.org/1999/xlink">
	<desc>
			Created with Pixso.
	</desc>
	<defs/>
	<path id="Vector" d="M22.31 13.56C21.68 13.56 21.18 14.1 21.18 14.78C21.18 16.25 20.06 17.45 18.69 17.45C17.32 17.45 16.2 16.25 16.2 14.78C16.2 13.3 17.32 12.1 18.69 12.1C19.31 12.1 19.82 11.55 19.82 10.88C19.82 10.21 19.31 9.66 18.69 9.66C16.07 9.66 13.94 11.96 13.94 14.78C13.94 17.59 16.07 19.89 18.69 19.89C21.31 19.89 23.44 17.59 23.44 14.78C23.44 14.1 22.93 13.56 22.31 13.56Z" fill="#FFFFFF" fill-opacity="1.000000" fill-rule="nonzero"/>
	<path id="Vector" d="M22.31 27.84C21.68 27.84 21.18 28.39 21.18 29.06C21.18 30.54 20.06 31.74 18.69 31.74C17.32 31.74 16.2 30.54 16.2 29.06C16.2 27.58 17.32 26.38 18.69 26.38C19.31 26.38 19.82 25.84 19.82 25.16C19.82 24.49 19.31 23.95 18.69 23.95C16.07 23.95 13.94 26.24 13.94 29.06C13.94 31.88 16.07 34.17 18.69 34.17C21.31 34.17 23.44 31.88 23.44 29.06C23.44 28.39 22.93 27.84 22.31 27.84Z" fill="#FFFFFF" fill-opacity="1.000000" fill-rule="nonzero"/>
	<path id="Vector" d="M40.68 31.3L32.23 31.3C31.61 31.3 31.1 31.85 31.1 32.52C31.1 33.19 31.61 33.74 32.23 33.74L40.68 33.74C41.31 33.74 41.81 33.19 41.81 32.52C41.81 31.85 41.31 31.3 40.68 31.3Z" fill="#FFFFFF" fill-opacity="1.000000" fill-rule="nonzero"/>
	<path id="Vector" d="M40.68 26.11L32.23 26.11C31.61 26.11 31.1 26.65 31.1 27.33C31.1 28 31.61 28.54 32.23 28.54L40.68 28.54C41.31 28.54 41.81 28 41.81 27.33C41.81 26.65 41.31 26.11 40.68 26.11Z" fill="#FFFFFF" fill-opacity="1.000000" fill-rule="nonzero"/>
	<path id="Vector" d="M38.27 45.59L32.23 45.59C31.61 45.59 31.1 46.13 31.1 46.8C31.1 47.48 31.61 48.02 32.23 48.02L38.27 48.02C38.89 48.02 39.4 47.48 39.4 46.8C39.4 46.13 38.89 45.59 38.27 45.59Z" fill="#FFFFFF" fill-opacity="1.000000" fill-rule="nonzero"/>
	<path id="Vector" d="M40.68 40.39L32.23 40.39C31.61 40.39 31.1 40.94 31.1 41.61C31.1 42.28 31.61 42.83 32.23 42.83L40.68 42.83C41.31 42.83 41.81 42.28 41.81 41.61C41.81 40.94 41.31 40.39 40.68 40.39Z" fill="#FFFFFF" fill-opacity="1.000000" fill-rule="nonzero"/>
	<path id="Vector" d="M51.54 17.02L32.23 17.02C31.61 17.02 31.1 17.56 31.1 18.24C31.1 18.91 31.61 19.45 32.23 19.45L51.54 19.45C52.17 19.45 52.67 18.91 52.67 18.24C52.67 17.56 52.17 17.02 51.54 17.02Z" fill="#FFFFFF" fill-opacity="1.000000" fill-rule="nonzero"/>
	<path id="Vector" d="M46.72 11.83L32.23 11.83C31.61 11.83 31.1 12.37 31.1 13.04C31.1 13.72 31.61 14.26 32.23 14.26L46.72 14.26C47.34 14.26 47.85 13.72 47.85 13.04C47.85 12.37 47.34 11.83 46.72 11.83Z" fill="#FFFFFF" fill-opacity="1.000000" fill-rule="nonzero"/>
	<path id="Vector" d="M22.31 42.12C21.68 42.12 21.18 42.67 21.18 43.34C21.18 44.82 20.06 46.02 18.69 46.02C17.32 46.02 16.2 44.82 16.2 43.34C16.2 41.87 17.32 40.66 18.69 40.66C19.31 40.66 19.82 40.12 19.82 39.45C19.82 38.77 19.31 38.23 18.69 38.23C16.07 38.23 13.94 40.52 13.94 43.34C13.94 46.16 16.07 48.45 18.69 48.45C21.31 48.45 23.44 46.16 23.44 43.34C23.44 42.67 22.93 42.12 22.31 42.12Z" fill="#FFFFFF" fill-opacity="1.000000" fill-rule="nonzero"/>
	<path id="Vector" d="M58.48 0L4.65 0C2.08 0 0 1.71 0 3.81L0 58.34C0 60.45 2.08 62.16 4.65 62.16L31.56 62.16C32.38 62.16 33.05 61.61 33.05 60.94C33.05 60.27 32.38 59.72 31.56 59.72L4.65 59.72C3.72 59.72 2.96 59.11 2.96 58.34L2.96 3.81C2.96 3.05 3.72 2.43 4.65 2.43L58.48 2.43C59.41 2.43 60.16 3.05 60.16 3.81L60.16 44.06C60.16 44.73 60.83 45.28 61.65 45.28C62.47 45.28 63.13 44.73 63.13 44.06L63.13 3.81C63.13 1.71 61.05 0 58.48 0Z" fill="#FFFFFF" fill-opacity="1.000000" fill-rule="nonzero"/>
	<path id="Vector" d="M70.27 49.36C69.22 49.25 68.17 49.57 67.34 50.25C66.67 49.05 65.54 48.2 64.24 48.06C63.18 47.95 62.13 48.27 61.3 48.95C60.64 47.75 59.51 46.9 58.2 46.76C57.4 46.68 56.6 46.84 55.89 47.23L55.89 31.73C55.89 30.47 55.39 29.26 54.53 28.42C53.66 27.57 52.49 27.16 51.32 27.29C49.23 27.51 47.6 29.54 47.6 31.91L47.6 47.45L44.27 51.03C42.5 52.93 41.79 55.63 42.36 58.25L44.89 69.8C45.91 74.47 49.74 77.74 54.21 77.74L64.42 77.74C69.7 77.74 74 73.12 74 67.43L74 53.99C74 51.62 72.36 49.58 70.27 49.36ZM71.73 67.43C71.73 71.77 68.45 75.31 64.42 75.31L54.21 75.31C50.8 75.31 47.87 72.81 47.09 69.24L44.56 57.69C44.17 55.9 44.66 54.05 45.87 52.75L47.6 50.9L47.6 55.1C47.6 55.77 48.1 56.32 48.73 56.32C49.35 56.32 49.86 55.77 49.86 55.1L49.86 31.91C49.86 30.78 50.6 29.81 51.55 29.71C52.09 29.65 52.61 29.83 53.01 30.22C53.4 30.61 53.63 31.15 53.63 31.73L53.63 53.15C53.63 53.82 54.14 54.37 54.76 54.37C55.39 54.37 55.89 53.82 55.89 53.15L55.89 51.2C55.89 50.63 56.12 50.08 56.51 49.7C56.91 49.31 57.43 49.13 57.98 49.19C58.92 49.29 59.66 50.26 59.66 51.39L59.66 54.45C59.66 55.12 60.17 55.67 60.8 55.67C61.42 55.67 61.93 55.12 61.93 54.45L61.93 52.5C61.93 51.93 62.15 51.38 62.55 51C62.95 50.61 63.47 50.42 64.01 50.48C64.96 50.59 65.7 51.55 65.7 52.69L65.7 55.75C65.7 56.42 66.21 56.97 66.83 56.97C67.45 56.97 67.96 56.42 67.96 55.75L67.96 53.8C67.96 53.23 68.19 52.68 68.58 52.29C68.98 51.91 69.5 51.72 70.05 51.78C70.99 51.88 71.73 52.85 71.73 53.99L71.73 67.43L71.73 67.43Z" fill="#FFFFFF" fill-opacity="1.000000" fill-rule="nonzero"/>
</svg>
