<svg width="15.000000" height="15.835938" viewBox="0 0 15 15.8359" fill="none" xmlns="http://www.w3.org/2000/svg" xmlns:xlink="http://www.w3.org/1999/xlink">
	<desc>
			Created with Pixso.
	</desc>
	<defs/>
	<path id="Vector" d="M14.61 11.67L12.74 9.71C12.23 9.16 11.39 9.16 10.88 9.71L10.03 10.6C9.64 11.01 9.01 11.01 8.62 10.6L4.95 6.72C4.56 6.31 4.56 5.64 4.95 5.23C5.08 5.08 5.47 4.67 5.79 4.33C6.31 3.79 6.31 2.91 5.79 2.36L3.93 0.4C3.41 -0.14 2.58 -0.14 2.07 0.4C1.68 0.8 1.56 0.93 1.39 1.11C-0.47 3.07 -0.47 6.25 1.39 8.21L7.21 14.36C9.07 16.32 12.07 16.32 13.93 14.36L14.61 13.64C15.12 13.1 15.12 12.22 14.61 11.67ZM2.69 1.06C2.86 0.88 3.14 0.88 3.31 1.06L5.17 3.02C5.34 3.2 5.34 3.5 5.17 3.68L4.86 4L2.38 1.38L2.69 1.06ZM7.83 13.7L2.01 7.55C0.57 6.04 0.49 3.66 1.76 2.05L4.24 4.66C3.59 5.44 3.62 6.63 4.32 7.38L8 11.26C8 11.26 8 11.26 8 11.26C8.7 12 9.83 12.03 10.57 11.34L13.04 13.96C11.52 15.3 9.27 15.23 7.83 13.7ZM13.99 12.99L13.68 13.32L11.19 10.69L11.5 10.36C11.67 10.18 11.95 10.18 12.12 10.36L13.99 12.33C14.16 12.51 14.16 12.81 13.99 12.99Z" fill="#FFFFFF" fill-opacity="1.000000" fill-rule="nonzero"/>
</svg>
