<svg width="92.000000" height="60.000000" viewBox="0 0 92 60" fill="none" xmlns="http://www.w3.org/2000/svg" xmlns:xlink="http://www.w3.org/1999/xlink">
	<desc>
			Created with Pixso.
	</desc>
	<defs/>
	<path id="Vector" d="M85.69 25.43L83.36 15.61C84 15.46 84.48 14.87 84.48 14.15L84.48 12.57C84.48 9.13 81.82 6.33 78.56 6.33L67.95 6.33L67.95 3.06C67.95 1.37 66.64 0 65.03 0L10.92 0C9.31 0 8.01 1.37 8.01 3.06L8.01 30C8.01 30.82 8.64 31.48 9.42 31.48C10.2 31.48 10.83 30.82 10.83 30L10.83 3.06C10.83 3.01 10.87 2.97 10.92 2.97L65.03 2.97C65.08 2.97 65.13 3.01 65.13 3.06L65.13 30C65.13 30.82 65.76 31.48 66.54 31.48C67.31 31.48 67.94 30.82 67.94 30L67.94 28.31L84.57 28.31C84.57 28.31 84.57 28.31 84.57 28.31C84.57 28.31 84.57 28.31 84.58 28.31C86.62 28.31 88.36 29.73 88.96 31.68L84.57 31.68C83.8 31.68 83.16 32.34 83.16 33.16L83.16 36.33C83.16 38.9 85.14 40.99 87.58 40.99L89.18 40.99L89.18 47.52L85.49 47.52C84.28 43.84 80.96 41.18 77.06 41.18C73.16 41.18 69.83 43.84 68.62 47.52L67.94 47.52L67.94 36.33C67.94 35.51 67.31 34.85 66.54 34.85C65.76 34.85 65.13 35.51 65.13 36.33L65.13 47.52L35.89 47.52C34.68 43.84 31.36 41.18 27.45 41.18C23.55 41.18 20.23 43.84 19.02 47.52L10.92 47.52C10.87 47.52 10.83 47.48 10.83 47.42L10.83 44.15L16.93 44.15C17.71 44.15 18.34 43.49 18.34 42.67C18.34 41.85 17.71 41.18 16.93 41.18L3.4 41.18C2.63 41.18 2 41.85 2 42.67C2 43.49 2.63 44.15 3.4 44.15L8.01 44.15L8.01 47.42C8.01 49.11 9.31 50.49 10.92 50.49L18.53 50.49C18.53 50.52 18.53 50.56 18.53 50.59C18.53 55.78 22.53 60 27.45 60C32.38 60 36.38 55.78 36.38 50.59C36.38 50.56 36.38 50.52 36.38 50.49L68.14 50.49C68.13 50.52 68.13 50.56 68.13 50.59C68.13 55.78 72.14 60 77.06 60C81.98 60 85.98 55.78 85.98 50.59C85.98 50.56 85.98 50.52 85.98 50.49L90.59 50.49C91.36 50.49 92 49.83 92 49L92 33.16C92 29.25 89.26 26 85.69 25.43ZM67.95 9.3L78.56 9.3C80.27 9.3 81.66 10.77 81.66 12.57L81.66 12.67L67.95 12.67L67.95 9.3ZM67.95 25.34L67.95 15.64L80.47 15.64L82.77 25.34L67.95 25.34ZM27.45 57.03C24.09 57.03 21.35 54.14 21.35 50.59C21.35 47.04 24.09 44.15 27.45 44.15C30.82 44.15 33.56 47.04 33.56 50.59C33.56 54.14 30.82 57.03 27.45 57.03ZM77.06 57.03C73.69 57.03 70.95 54.14 70.95 50.59C70.95 47.04 73.69 44.15 77.06 44.15C80.42 44.15 83.16 47.04 83.16 50.59C83.16 54.14 80.42 57.03 77.06 57.03ZM89.18 38.02L87.58 38.02C86.7 38.02 85.98 37.26 85.98 36.33L85.98 34.65L89.18 34.65L89.18 38.02L89.18 38.02Z" fill="#FFFFFF" fill-opacity="1.000000" fill-rule="nonzero"/>
	<path id="Vector" d="M27.5 48C26.12 48 25 49.12 25 50.5C25 51.87 26.12 53 27.5 53C28.87 53 30 51.87 30 50.5C30 49.12 28.87 48 27.5 48Z" fill="#FFFFFF" fill-opacity="1.000000" fill-rule="nonzero"/>
	<path id="Vector" d="M77.1 48C75.72 48 74.6 49.12 74.6 50.5C74.6 51.87 75.72 53 77.1 53C78.48 53 79.6 51.87 79.6 50.5C79.6 49.12 78.48 48 77.1 48Z" fill="#FFFFFF" fill-opacity="1.000000" fill-rule="nonzero"/>
	<path id="Vector" d="M34.45 37L13.4 37C12.63 37 12 37.67 12 38.51C12 39.35 12.63 40.03 13.4 40.03L34.45 40.03C35.23 40.03 35.86 39.35 35.86 38.51C35.86 37.67 35.23 37 34.45 37Z" fill="#FFFFFF" fill-opacity="1.000000" fill-rule="nonzero"/>
	<path id="Vector" d="M19.44 33L1.4 33C0.63 33 0 33.67 0 34.51C0 35.35 0.63 36.03 1.4 36.03L19.44 36.03C20.22 36.03 20.85 35.35 20.85 34.51C20.85 33.67 20.22 33 19.44 33Z" fill="#FFFFFF" fill-opacity="1.000000" fill-rule="nonzero"/>
	<path id="Vector" d="M51 14.99C50.45 14.4 49.56 14.4 49 14.99L36.47 28.48L29.95 21.46C29.4 20.87 28.51 20.87 27.96 21.46C27.41 22.06 27.41 23.01 27.96 23.61L35.48 31.69C35.75 31.99 36.11 32.14 36.47 32.14C36.83 32.14 37.19 31.99 37.47 31.69L51 17.14C51.55 16.55 51.55 15.59 51 14.99Z" fill="#FFFFFF" fill-opacity="1.000000" fill-rule="nonzero"/>
</svg>
