<svg xmlns="http://www.w3.org/2000/svg" viewBox="0 0 512.00 512.00" data-guides="{&quot;vertical&quot;:[],&quot;horizontal&quot;:[]}"><defs/><path fill="#e8aa31" stroke="none" fill-opacity="1" stroke-width="1" stroke-opacity="1" id="tSvg3063164532" title="Path 2" d="M47.6 300.4C107.8333 356.6333 168.0667 412.8667 228.3 469.1C235.8 476.1 245.7 480 256 480C266.3 480 276.2 476.1 283.7 469.1C343.9333 412.8667 404.1667 356.6333 464.4 300.4C494.8 272.1 512 232.4 512 190.9C512 188.9667 512 187.0333 512 185.1C512 115.2 461.5 55.6 392.6 44.1C347 36.5 300.6 51.4 268 84C264 88 260 92 256 96C252 92 248 88 244 84C211.4 51.4 165 36.5 119.4 44.1C50.5 55.6 0 115.2 0 185.1C0 187.0333 0 188.9667 0 190.9C0 232.4 17.2 272.1 47.6 300.4Z"/></svg>