<svg width="28.000000" height="24.985352" viewBox="0 0 28 24.9854" fill="none" xmlns="http://www.w3.org/2000/svg" xmlns:xlink="http://www.w3.org/1999/xlink">
	<desc>
			Created with Pixso.
	</desc>
	<defs/>
	<path id="Vector" d="M20.1 0C17.71 0 15.48 1 14 2.69C12.51 1 10.28 0 7.89 0C3.54 0 0 3.31 0 7.38C0 10.57 2.03 14.26 6.04 18.34C9.13 21.49 12.48 23.92 13.44 24.59L13.99 24.98L14.55 24.59C15.51 23.92 18.86 21.49 21.95 18.34C25.96 14.26 28 10.57 28 7.38C28 3.31 24.45 0 20.1 0ZM20.59 17.17C18.05 19.76 15.32 21.85 13.99 22.81C12.67 21.85 9.94 19.76 7.4 17.17C3.76 13.47 1.84 10.08 1.84 7.38C1.84 4.26 4.56 1.72 7.89 1.72C10.09 1.72 12.12 2.84 13.19 4.64L14 6L14.8 4.64C15.87 2.84 17.9 1.72 20.1 1.72C23.43 1.72 26.15 4.26 26.15 7.38C26.15 10.08 24.23 13.47 20.59 17.17Z" fill="#E8AA31" fill-opacity="1.000000" fill-rule="nonzero"/>
</svg>
