<svg xmlns="http://www.w3.org/2000/svg" viewBox="0 0 512.00 512.00" data-guides="{&quot;vertical&quot;:[],&quot;horizontal&quot;:[]}"><defs/><path fill="#e8aa31" stroke="none" fill-opacity="1" stroke-width="1" stroke-opacity="1" id="tSvg4ba78a03d8" title="Path 1" d="M225.8 468.2C224.9667 467.4333 224.1333 466.6667 223.3 465.9C164.9 411.6667 106.5 357.4333 48.1 303.2C17.4 274.7 0 234.7 0 192.8C0 191.7 0 190.6 0 189.5C0 119.1 50 58.7 119.2 45.5C158.6 37.9 198.9 47 231 69.6C240 76 248.4 83.4 256 91.9C260.2 87.1 264.7 82.7 269.5 78.6C273.2 75.4 277 72.4 281 69.6C281 69.6 281 69.6 281 69.6C313.1 47 353.4 37.9 392.8 45.4C462 58.6 512 119.1 512 189.5C512 190.6 512 191.7 512 192.8C512 234.7 494.6 274.7 463.9 303.2C405.5 357.4333 347.1 411.6667 288.7 465.9C287.8667 466.6667 287.0333 467.4333 286.2 468.2C278 475.8 267.2 480.1 256 480.1C244.8 480.1 234 475.9 225.8 468.2ZM239.1 145C238.7 144.7 238.4 144.3 238.1 143.9C232.1667 137.2333 226.2333 130.5667 220.3 123.9C220.2667 123.8667 220.2333 123.8333 220.2 123.8C220.2 123.8 220.2 123.8 220.2 123.8C197.1 97.9 162.2 86.1 128.2 92.6C81.6 101.5 48 142.1 48 189.5C48 190.6 48 191.7 48 192.8C48 221.3 59.9 248.6 80.8 268C139.2 322.2333 197.6 376.4667 256 430.7C314.4 376.4667 372.8 322.2333 431.2 268C452.1 248.6 464 221.3 464 192.8C464 191.7 464 190.6 464 189.5C464 142.2 430.4 101.5 383.9 92.6C349.9 86.1 314.9 98 291.9 123.8C291.9 123.8 291.9 123.8 291.8 123.9C291.7 124 291.8 123.9 291.7 124C285.7667 130.6667 279.8333 137.3333 273.9 144C273.6 144.4 273.2 144.7 272.9 145.1C268.4 149.6 262.3 152.1 256 152.1C249.7 152.1 243.6 149.6 239.1 145.1C239.1 145.0667 239.1 145.0333 239.1 145"/></svg>