<svg width="11.000000" height="16.490234" viewBox="0 0 11 16.4902" fill="none" xmlns="http://www.w3.org/2000/svg" xmlns:xlink="http://www.w3.org/1999/xlink">
	<desc>
			Created with Pixso.
	</desc>
	<defs/>
	<path id="Vector" d="M5.5 0C2.46 0 0 2.6 0 5.79C0 6.87 0.28 7.93 0.82 8.84L5.18 16.26C5.27 16.4 5.41 16.49 5.57 16.49C5.57 16.49 5.57 16.49 5.58 16.49C5.73 16.48 5.88 16.4 5.96 16.25L10.22 8.76C10.73 7.87 11 6.84 11 5.79C11 2.6 8.53 0 5.5 0ZM9.43 8.27L5.56 15.07L1.6 8.33C1.15 7.57 0.91 6.69 0.91 5.79C0.91 3.13 2.97 0.95 5.5 0.95C8.02 0.95 10.08 3.13 10.08 5.79C10.08 6.67 9.85 7.52 9.43 8.27Z" fill="#FFFFFF" fill-opacity="1.000000" fill-rule="nonzero"/>
	<path id="Vector" d="M5.5 2.44C3.81 2.44 2.44 3.81 2.44 5.49C2.44 7.16 3.79 8.55 5.5 8.55C7.22 8.55 8.55 7.15 8.55 5.49C8.55 3.81 7.18 2.44 5.5 2.44ZM5.5 7.54C4.37 7.54 3.45 6.62 3.45 5.49C3.45 4.37 4.37 3.45 5.5 3.45C6.62 3.45 7.54 4.37 7.54 5.49C7.54 6.6 6.64 7.54 5.5 7.54Z" fill="#FFFFFF" fill-opacity="1.000000" fill-rule="nonzero"/>
</svg>
