<svg width="17.000000" height="24.417297" viewBox="0 0 17 24.4173" fill="none" xmlns="http://www.w3.org/2000/svg" xmlns:xlink="http://www.w3.org/1999/xlink">
	<desc>
			Created with Pixso.
	</desc>
	<defs/>
	<path id="Vector" d="M8.5 0C3.81 0 0 3.85 0 8.58C0 10.18 0.43 11.74 1.26 13.09L8.01 24.07C8.14 24.28 8.37 24.41 8.61 24.41C8.61 24.41 8.62 24.41 8.62 24.41C8.87 24.41 9.09 24.28 9.22 24.06L15.8 12.98C16.58 11.65 17 10.13 17 8.58C17 3.85 13.18 0 8.5 0ZM14.58 12.24L8.6 22.32L2.47 12.34C1.78 11.21 1.4 9.91 1.4 8.58C1.4 4.63 4.59 1.42 8.5 1.42C12.4 1.42 15.58 4.63 15.58 8.58C15.58 9.87 15.23 11.14 14.58 12.24Z" fill="#000000" fill-opacity="1.000000" fill-rule="nonzero"/>
	<path id="Vector" d="M8.49 3.61C5.89 3.61 3.77 5.64 3.77 8.13C3.77 10.61 5.85 12.66 8.49 12.66C11.16 12.66 13.21 10.58 13.21 8.13C13.21 5.64 11.1 3.61 8.49 3.61ZM8.49 11.16C6.75 11.16 5.33 9.8 5.33 8.13C5.33 6.47 6.76 5.11 8.49 5.11C10.23 5.11 11.64 6.47 11.64 8.13C11.64 9.78 10.26 11.16 8.49 11.16Z" fill="#000000" fill-opacity="1.000000" fill-rule="nonzero"/>
</svg>
