<svg width="189.999756" height="42.451050" viewBox="0 0 190 42.451" fill="none" xmlns="http://www.w3.org/2000/svg" xmlns:xlink="http://www.w3.org/1999/xlink">
	<desc>
			Created with Pixso.
	</desc>
	<defs/>
	<path id="Слияние" d="M62.0176 0L54.5496 18.0189C54.2986 18.6067 54.0703 19.1092 53.8647 19.5204C53.6589 19.9314 53.4822 20.2742 53.3281 20.5479C53.1738 20.8163 53.0425 21.0335 52.9399 21.2045C52.8313 21.3876 52.6772 21.6101 52.4888 21.8613C52.3003 22.1123 52.0605 22.3694 51.7693 22.6319C51.4839 22.8891 51.1416 23.1232 50.7361 23.3288C50.345 23.5297 49.8936 23.6761 49.377 23.7681L49.377 13.9078L48.9316 13.9078L48.8291 14.9702C48.7776 15.5352 48.6975 16.0949 48.5952 16.6655C48.4863 17.2308 48.3152 17.7789 48.0698 18.3098C47.8298 18.8467 47.4761 19.3376 47.0137 19.8001C46.8708 19.9486 46.6594 20.1257 46.3855 20.3251C46.1111 20.5251 45.7632 20.7195 45.335 20.9076C44.9067 21.102 44.3926 21.2617 43.7935 21.3876C43.1936 21.5129 42.4973 21.5757 41.7036 21.5813L33.8589 21.5813L33.8589 4.17926C33.8533 3.97925 33.8645 3.72833 33.8992 3.43146C33.9277 3.13458 34.0073 2.82617 34.1274 2.5065C34.2532 2.18649 34.447 1.90152 34.7153 1.64435C34.9612 1.42746 35.2463 1.26746 35.5718 1.15933C35.9033 1.04495 36.2397 0.964966 36.5881 0.919037C36.9307 0.873718 37.2563 0.839355 37.5588 0.822144L38.1414 0.788086L38.1414 0.342804L25.3293 0.342804L25.3293 0.788086L25.9116 0.822144C26.2144 0.839355 26.5398 0.873718 26.8882 0.919037C27.2302 0.964966 27.5676 1.04495 27.8984 1.15933C28.2241 1.26746 28.5098 1.42746 28.7549 1.64435C29.0232 1.90152 29.2231 2.18649 29.343 2.5065C29.4626 2.82617 29.5427 3.13458 29.5715 3.43146C29.6055 3.72833 29.6169 3.97925 29.6111 4.17926L29.6111 20.4854C29.6169 20.7648 29.6055 21.0504 29.5715 21.3473C29.5427 21.6441 29.4626 21.941 29.343 22.2266C29.2231 22.5122 29.0232 22.7804 28.7549 23.0204C28.4978 23.2313 28.2129 23.3972 27.887 23.5057C27.5676 23.62 27.2363 23.6997 26.8938 23.7453C26.551 23.791 26.2256 23.825 25.9116 23.8425L25.3293 23.8766L25.3293 24.3219L60.9902 24.3219L60.9902 23.8766L60.1335 23.8081C59.7971 23.7853 59.437 23.7281 59.0544 23.6369C58.6721 23.5457 58.3123 23.4029 57.9695 23.2144C57.6274 23.026 57.3418 22.7804 57.1194 22.472C56.936 22.2154 56.8108 21.9129 56.7368 21.5588C56.668 21.2104 56.645 20.8504 56.6797 20.4798C56.7078 20.1145 56.7876 19.7717 56.9136 19.4576L58.2156 16.2718L66.9849 16.2718L68.5264 20.0401C68.6177 20.251 68.6921 20.4798 68.7605 20.7307C68.8289 20.9876 68.863 21.2335 68.8689 21.4788C68.863 21.9869 68.7661 22.3922 68.572 22.6891C68.3838 22.9916 68.1382 23.2144 67.8416 23.3629C67.6868 23.4541 67.4988 23.5282 67.2817 23.5854C67.0647 23.6425 66.8025 23.6941 66.4824 23.7338C66.1628 23.7741 65.7688 23.8081 65.3066 23.8425L64.7925 23.8766L64.7925 24.3219L78.2212 24.3219L78.2212 23.8766L77.6729 23.8425C77.2676 23.8194 76.8674 23.7509 76.4739 23.6369C76.0801 23.5281 75.72 23.3853 75.3892 23.2144C75.0522 23.0432 74.7778 22.8488 74.5554 22.6438C74.3557 22.4438 74.1614 22.181 73.9788 21.8613C73.7903 21.536 73.5847 21.1076 73.3508 20.571C73.1223 20.0401 72.8367 19.3607 72.5 18.5327L64.9297 0L62.0176 0ZM144.781 0L137.313 18.0189C137.062 18.6067 136.834 19.1092 136.628 19.5204C136.423 19.9314 136.246 20.2742 136.092 20.5479C135.938 20.8163 135.806 21.0335 135.704 21.2045C135.595 21.3876 135.441 21.6101 135.252 21.8613C135.064 22.1123 134.824 22.3694 134.533 22.6319C134.247 22.8891 133.905 23.1232 133.5 23.3288C133.1 23.5341 132.638 23.6825 132.107 23.7741L131.66 23.8445L131.627 23.8425C131.324 23.8194 130.999 23.791 130.656 23.7453C130.308 23.6941 129.971 23.62 129.646 23.5057C129.314 23.3972 129.029 23.2313 128.783 23.0204C128.515 22.7632 128.321 22.4719 128.195 22.1582C128.076 21.8385 127.996 21.5304 127.967 21.2335C127.939 20.9363 127.921 20.6851 127.927 20.4854L127.927 4.17926C127.921 3.97925 127.939 3.72833 127.967 3.43146C127.996 3.13458 128.076 2.82617 128.195 2.5065C128.321 2.18649 128.515 1.90152 128.783 1.64435C129.029 1.42746 129.314 1.26746 129.646 1.15933C129.971 1.04495 130.308 0.964966 130.656 0.919037C130.999 0.873718 131.324 0.839355 131.627 0.822144L132.209 0.788086L132.209 0.342804L121.932 0.342804L115.526 16.6146L115.424 16.6146L109.018 0.342804L98.3298 0.342804L98.3298 0.788086L98.9124 0.822144C99.2148 0.839355 99.54 0.873718 99.8884 0.919037C100.231 0.964966 100.568 1.04495 100.899 1.15933C101.224 1.26746 101.51 1.42746 101.755 1.64435C102.023 1.90152 102.223 2.18649 102.344 2.5065C102.463 2.82617 102.543 3.13458 102.572 3.43146C102.606 3.72833 102.617 3.97925 102.612 4.17926L102.612 19.8001C102.617 20.0629 102.6 20.3823 102.566 20.7592C102.532 21.136 102.452 21.5185 102.327 21.9013C102.207 22.2838 102.012 22.6091 101.755 22.8835C101.533 23.1004 101.247 23.2772 100.911 23.4144C100.573 23.5513 100.225 23.6541 99.8713 23.7225C99.5117 23.791 99.1919 23.831 98.9124 23.8425L98.3298 23.8766L98.3298 24.3219L109.874 24.3219L109.874 23.8766L109.292 23.8425C109.012 23.831 108.692 23.791 108.333 23.7225C107.979 23.6541 107.63 23.5513 107.293 23.4144C106.957 23.2772 106.671 23.1004 106.449 22.8835C106.243 22.6719 106.083 22.4266 105.969 22.141C105.849 21.8557 105.764 21.5645 105.712 21.2616C105.661 20.9648 105.626 20.6851 105.609 20.4282C105.598 20.1654 105.592 19.9601 105.592 19.8001L105.592 3.66553L105.695 3.66553L113.848 24.3219L115.424 24.3219L123.577 3.66553L123.679 3.66553L123.679 20.4854C123.685 20.6851 123.674 20.9363 123.639 21.2335C123.611 21.5304 123.537 21.8385 123.411 22.1582C123.291 22.4719 123.091 22.7632 122.823 23.0204C122.578 23.2313 122.292 23.3972 121.967 23.5057C121.635 23.62 121.299 23.6941 120.956 23.7453C120.608 23.791 120.282 23.8194 119.979 23.8425L119.397 23.8766L119.397 24.3219L143.754 24.3219L143.754 23.8766L142.897 23.8081C142.561 23.7853 142.201 23.7281 141.818 23.6369C141.436 23.5457 141.076 23.4029 140.733 23.2144C140.391 23.026 140.105 22.7804 139.883 22.472C139.7 22.2154 139.574 21.9129 139.5 21.5588C139.432 21.2104 139.408 20.8504 139.443 20.4798C139.472 20.1145 139.551 19.7717 139.677 19.4576L140.979 16.2718L149.749 16.2718L151.29 20.0401C151.381 20.251 151.456 20.4798 151.524 20.7307C151.593 20.9876 151.627 21.2335 151.633 21.4788C151.627 21.9869 151.53 22.3922 151.336 22.6891C151.147 22.9916 150.902 23.2144 150.605 23.3629C150.45 23.4541 150.262 23.5282 150.045 23.5854C149.828 23.6425 149.566 23.6941 149.246 23.7338C148.926 23.7741 148.533 23.8081 148.07 23.8425L147.556 23.8766L147.556 24.3219L172.735 24.3219L172.735 23.8766L171.912 23.8081C171.267 23.751 170.771 23.6766 170.417 23.5913C170.068 23.4997 169.834 23.4369 169.72 23.3972C169.475 23.3056 169.246 23.1916 169.029 23.0375C168.812 22.8891 168.629 22.7003 168.493 22.4607C168.355 22.2266 168.287 21.9354 168.281 21.5813C168.287 21.3132 168.361 21.0335 168.498 20.7367C168.635 20.4398 168.79 20.1654 168.966 19.9145C169.143 19.6632 169.292 19.4633 169.412 19.3204L173.762 14.2505L178.455 19.4232C178.701 19.6861 178.929 19.9601 179.146 20.2398C179.363 20.5251 179.546 20.8107 179.683 21.1076C179.82 21.3988 179.888 21.6957 179.894 21.9926C179.888 22.3294 179.797 22.6091 179.615 22.8319C179.437 23.0488 179.198 23.2257 178.901 23.3629C178.587 23.5169 178.221 23.6313 177.816 23.7057C177.411 23.7797 177.005 23.825 176.605 23.8425L175.612 23.8766L175.612 24.3219L190 24.3219L190 23.8766C189.623 23.8309 189.212 23.7338 188.772 23.5854C188.327 23.4369 187.859 23.2029 187.362 22.8835C186.74 22.4494 186.135 21.9297 185.558 21.3132C184.981 20.702 184.37 20.0282 183.731 19.2864L176.434 11.1331L181.059 5.78952C181.39 5.40704 181.738 5.00143 182.104 4.56738C182.475 4.13333 182.869 3.71115 183.291 3.2999C183.708 2.88898 184.165 2.51804 184.656 2.19211C184.958 1.99838 185.29 1.80963 185.661 1.63309C186.032 1.45621 186.42 1.30777 186.825 1.17621C187.225 1.04495 187.619 0.947784 188.013 0.890594L188.698 0.788086L188.698 0.342804L174.927 0.342804L174.927 0.788086L175.783 0.856537C176.412 0.907806 176.925 0.999023 177.325 1.12463C177.724 1.25058 178.033 1.40463 178.25 1.5759C178.501 1.76431 178.684 1.96994 178.787 2.19836C178.889 2.43243 178.941 2.689 178.935 2.98026C178.929 3.32306 178.884 3.62552 178.787 3.89926C178.695 4.168 178.581 4.40207 178.444 4.6077C178.307 4.81332 178.176 4.99017 178.044 5.13861L174.619 9.14664L169.755 3.73395C169.572 3.52832 169.44 3.34586 169.372 3.18585C169.303 3.02618 169.269 2.87775 169.275 2.74057C169.269 2.47775 169.332 2.22119 169.475 1.96994C169.612 1.71838 169.863 1.49591 170.234 1.30185C170.411 1.22153 170.616 1.14746 170.856 1.08496C171.096 1.02216 171.342 0.970612 171.587 0.930908C171.832 0.896545 172.055 0.868103 172.255 0.856537L173.043 0.788086L173.043 0.342804L159.752 0.342804L159.752 0.788086L160.402 0.925262C160.819 1.02216 161.248 1.20465 161.687 1.46747C162.126 1.72995 162.549 2.03244 162.954 2.38086C163.36 2.72928 163.72 3.07742 164.033 3.42554L171.947 12.2297L165.267 20.0058C165.153 20.1486 164.987 20.3195 164.781 20.5251C164.576 20.7307 164.347 20.9479 164.108 21.1704C163.863 21.3932 163.634 21.5988 163.411 21.787C163.194 21.9757 163.011 22.1241 162.869 22.2323C162.332 22.6263 161.75 22.9688 161.122 23.2488C160.658 23.4568 160.198 23.6273 159.741 23.7573C159.572 23.7253 159.404 23.6852 159.237 23.6369C158.844 23.5281 158.484 23.3853 158.153 23.2144C157.816 23.0432 157.542 22.8488 157.319 22.6438C157.119 22.4438 156.925 22.181 156.742 21.8613C156.554 21.536 156.348 21.1076 156.114 20.571C155.886 20.0401 155.6 19.3607 155.264 18.5327L147.693 0L144.781 0ZM1.52124 0.342804L1.52124 10.0029L1.96631 10.0029C2.00073 9.44913 2.08618 8.88943 2.229 8.33008C2.36597 7.76477 2.54272 7.22263 2.76562 6.70294C2.98242 6.1889 3.23364 5.7211 3.51904 5.29831C3.79907 4.88174 4.10718 4.54456 4.43311 4.28174C4.67285 4.0824 4.98096 3.89365 5.36328 3.71115C5.74585 3.52835 6.20264 3.37991 6.73364 3.26584C7.27051 3.14584 7.88135 3.08868 8.57764 3.08304L15.8401 3.08304L0.562012 24.1162L0.630371 24.3219L22.7258 24.3219L22.7258 13.2228L22.2805 13.2228C22.2461 13.8512 22.1829 14.4903 22.0918 15.1356C21.9949 15.7809 21.8635 16.409 21.6924 17.0196C21.5151 17.6305 21.2922 18.1958 21.0186 18.7211C20.7446 19.2408 20.4133 19.6917 20.0193 20.0742C19.5227 20.5367 18.9973 20.8735 18.4492 21.0907C17.8955 21.3076 17.3474 21.4444 16.7935 21.5016C16.2456 21.5644 15.7202 21.587 15.2234 21.5813L7.68701 21.5813L22.897 0.548126L22.7258 0.342804L1.52124 0.342804ZM88.5667 3.08304L91.1016 3.08304C91.3013 3.07742 91.5527 3.08868 91.8552 3.11179C92.1577 3.13461 92.4832 3.18024 92.8372 3.26022C93.1912 3.33429 93.5449 3.45398 93.8989 3.61429C94.2585 3.77991 94.5898 4.00238 94.9038 4.28174C95.1895 4.54456 95.4463 4.89297 95.6804 5.33267C95.9087 5.77203 96.1145 6.25763 96.2854 6.78854C96.4626 7.3251 96.6052 7.86792 96.7139 8.41571C96.822 8.96384 96.8906 9.48318 96.925 9.96881L97.3704 9.96881L97.3704 0.342804L75.5151 0.342804L75.5151 9.96881L75.9604 9.96881C75.9944 9.48318 76.0684 8.96384 76.1772 8.41571C76.28 7.86792 76.4226 7.3251 76.5994 6.78854C76.771 6.25763 76.9763 5.77203 77.2107 5.33267C77.439 4.89297 77.696 4.54456 77.9812 4.28174C78.2954 4.00238 78.6265 3.77991 78.9858 3.61429C79.3403 3.45398 79.6943 3.33429 80.0483 3.26022C80.4021 3.18024 80.7278 3.13461 81.0303 3.11179C81.3328 3.08868 81.584 3.07742 81.7839 3.08304L84.3188 3.08304L84.3188 20.4854C84.3245 20.6851 84.3132 20.9363 84.2786 21.2335C84.2502 21.5304 84.1704 21.8385 84.0505 22.1582C83.9307 22.4719 83.7307 22.7632 83.4624 23.0204C83.2168 23.2313 82.9314 23.3972 82.6062 23.5057C82.2747 23.62 81.938 23.6941 81.5952 23.7453C81.2471 23.791 80.9214 23.8194 80.6189 23.8425L80.0366 23.8766L80.0366 24.3219L92.8484 24.3219L92.8484 23.8766L92.2661 23.8425C91.9634 23.8194 91.6382 23.791 91.2957 23.7453C90.9475 23.6941 90.6104 23.62 90.2793 23.5057C89.9536 23.3972 89.6687 23.2313 89.4229 23.0204C89.1548 22.7632 88.9604 22.4719 88.8347 22.1582C88.7151 21.8385 88.635 21.5304 88.6062 21.2335C88.5723 20.9363 88.561 20.6851 88.5667 20.4854L88.5667 3.08304ZM66.1287 13.8737L59.0718 13.8737L62.5659 5.44675L62.6345 5.44675L66.1287 13.8737ZM148.892 13.8737L141.835 13.8737L145.33 5.44675L145.398 5.44675L148.892 13.8737ZM99.0188 37.0732C97.0437 37.8078 95.9175 38.3537 95.9175 38.3537C95.9175 38.3537 101.699 41.0171 104.427 41.5368C107.156 42.0565 111.183 41.8615 113.521 41.6018C115.86 41.3421 117.874 41.8615 117.874 41.8615C117.874 41.8615 118.328 41.2121 118.653 40.8871C118.978 40.5624 120.083 40.1728 121.316 40.2375C122.551 40.3025 123.98 40.7571 124.76 41.7318C125.539 42.7061 126.513 41.6668 127.228 40.7571C127.943 39.8478 128.008 39.6531 129.567 39.0034C130.675 38.5414 131.981 39.3279 132.993 39.9375C133.404 40.1852 133.767 40.4037 134.049 40.4975C134.685 40.7095 135.793 40.2288 136.828 39.7793C137.378 39.5407 137.908 39.3108 138.336 39.1981C139.57 38.8734 142.558 38.8084 145.287 39.1981C148.015 39.5881 150.873 41.7965 151.718 42.3161C152.562 42.8361 153.472 40.4974 153.926 38.0937C154.381 35.6904 153.796 34.716 152.302 33.7417C150.808 32.7673 140.61 32.2473 136.907 31.9877C133.204 31.728 121.251 32.3127 120.082 32.4426C119.229 32.5372 118.895 32.7701 118.776 32.8893C118.427 32.8893 116.9 33.053 111.443 33.8717C106.267 34.6479 101.954 35.9922 99.198 37.0069C99.7607 37.171 100.58 37.4175 101.439 37.7041C102.998 38.2234 105.207 38.6134 108.844 39.0031C112.482 39.3931 117.614 38.8734 117.614 38.8734C117.614 38.8734 117.614 38.4834 117.484 37.3144C117.354 36.1451 117.939 33.9363 117.939 33.9363C117.939 33.9363 117.939 34.196 118.004 35.7554C118.069 37.3144 118.653 39.4578 118.653 39.4578C118.653 39.4578 114.756 39.9124 112.028 39.9124C111.698 39.9124 111.38 39.9143 111.07 39.9162C108.814 39.9297 106.997 39.9405 104.427 39.1981C102.267 38.5741 100.037 37.56 99.0188 37.0732ZM118.776 32.8893C119.009 32.8893 118.718 32.962 118.718 32.962C118.718 32.962 118.732 32.9335 118.776 32.8893ZM0.979248 35.3575C0.801514 35.4359 0.63916 35.52 0.492188 35.6122L0.2229 34.8612C0.492188 34.6809 0.799561 34.5388 1.14331 34.4288C1.48926 34.3219 1.87866 34.2647 2.31055 34.2632C2.77222 34.2647 3.17456 34.3412 3.52295 34.4934C3.87085 34.6459 4.14087 34.8672 4.33643 35.1544C4.53174 35.4416 4.62964 35.79 4.63354 36.1987C4.62964 36.5253 4.55713 36.8206 4.41431 37.0858C4.27197 37.3521 4.07642 37.5749 3.83154 37.7549C3.5874 37.9346 3.31177 38.0618 3.00317 38.1346L3.00317 38.1574C3.37451 38.1989 3.70264 38.3027 3.99243 38.4708C4.28125 38.6389 4.50806 38.8658 4.67603 39.1474C4.84424 39.4286 4.93091 39.7586 4.93823 40.1405C4.93652 40.4686 4.88354 40.7583 4.77808 41.0105C4.67261 41.2627 4.52759 41.4773 4.34229 41.6592C4.15649 41.8395 3.94336 41.9879 3.69922 42.1032C3.45605 42.2183 3.19653 42.3023 2.91675 42.357C2.6394 42.4123 2.35596 42.4395 2.0647 42.4395C1.70459 42.4417 1.34644 42.4001 0.993164 42.3185C0.63916 42.2361 0.30835 42.1032 0 41.9236L0.269287 41.1255C0.41626 41.2095 0.585938 41.2879 0.780029 41.3604C0.971191 41.4323 1.17676 41.4911 1.39551 41.5361C1.61279 41.5811 1.83203 41.6045 2.05249 41.607C2.44189 41.6045 2.76807 41.5382 3.03833 41.4111C3.30591 41.282 3.50928 41.1061 3.65015 40.8792C3.78906 40.6545 3.85938 40.3961 3.85938 40.1052C3.85742 39.8686 3.81616 39.663 3.73218 39.4908C3.65015 39.3189 3.53687 39.1743 3.39404 39.0568C3.25122 38.9399 3.08716 38.8462 2.90527 38.7752C2.72144 38.7049 2.52734 38.6543 2.32251 38.6249C2.11938 38.594 1.91626 38.5802 1.71216 38.5802L1.24316 38.5802L1.24316 37.8058L1.70068 37.8058C1.96265 37.804 2.20752 37.7665 2.43188 37.6924C2.65869 37.618 2.8562 37.5143 3.02441 37.3815C3.19434 37.2484 3.32715 37.0959 3.42114 36.9203C3.51709 36.744 3.56396 36.5546 3.56616 36.3512C3.56396 36.0812 3.50342 35.8528 3.38574 35.665C3.26685 35.479 3.10278 35.3381 2.88965 35.2406C2.67847 35.1447 2.43018 35.0956 2.14648 35.0956C1.94312 35.0978 1.74146 35.1216 1.54248 35.17C1.34497 35.2172 1.15723 35.28 0.979248 35.3575ZM28.0049 34.5584C28.4487 34.3628 28.9375 34.2647 29.467 34.2632C30.0115 34.2647 30.5037 34.3644 30.9399 34.5584C31.3777 34.7519 31.7529 35.0278 32.064 35.3853C32.3765 35.7409 32.6155 36.1637 32.7812 36.6543C32.9475 37.1431 33.0317 37.6824 33.0334 38.2749C33.0317 38.8168 32.9688 39.309 32.8457 39.7489C32.7231 40.1892 32.5469 40.5764 32.3218 40.9108C32.0974 41.247 31.8313 41.5264 31.5261 41.7533C31.2214 41.9798 30.8848 42.152 30.5193 42.2654C30.1536 42.3807 29.7668 42.4395 29.3618 42.4395C28.834 42.4376 28.355 42.3398 27.9209 42.1479C27.4871 41.9545 27.1118 41.6811 26.7969 41.3255C26.4819 40.9689 26.2397 40.5452 26.0674 40.0539C25.8953 39.5611 25.8093 39.0158 25.8071 38.4162C25.8093 37.7862 25.9009 37.2174 26.0828 36.7072C26.2632 36.1987 26.5171 35.7625 26.8459 35.3969C27.1741 35.0334 27.5591 34.7538 28.0049 34.5584ZM54.8328 34.5584C55.2769 34.3628 55.7654 34.2647 56.2952 34.2632C56.8391 34.2647 57.3318 34.3644 57.7678 34.5584C58.2053 34.7519 58.5811 35.0278 58.8918 35.3853C59.2043 35.7409 59.4436 36.1637 59.6091 36.6543C59.7756 37.1431 59.8596 37.6824 59.8613 38.2749C59.8596 38.8168 59.7969 39.309 59.6738 39.7489C59.551 40.1892 59.375 40.5764 59.1497 40.9108C58.9253 41.247 58.6592 41.5264 58.3542 41.7533C58.0496 41.9798 57.7126 42.152 57.3469 42.2654C56.9814 42.3807 56.5945 42.4395 56.1899 42.4395C55.6616 42.4376 55.1826 42.3398 54.7485 42.1479C54.3152 41.9545 53.9399 41.6811 53.625 41.3255C53.3098 40.9689 53.0674 40.5452 52.8953 40.0539C52.7231 39.5611 52.6375 39.0158 52.6353 38.4162C52.6375 37.7862 52.729 37.2174 52.9109 36.7072C53.0911 36.1987 53.345 35.7625 53.6736 35.3969C54.0022 35.0334 54.387 34.7538 54.8328 34.5584ZM168.228 34.5584C168.672 34.3628 169.161 34.2647 169.691 34.2632C170.235 34.2647 170.727 34.3644 171.164 34.5584C171.601 34.7519 171.976 35.0278 172.287 35.3853C172.6 35.7409 172.839 36.1637 173.005 36.6543C173.171 37.1431 173.255 37.6824 173.257 38.2749C173.255 38.8168 173.192 39.309 173.069 39.7489C172.947 40.1892 172.77 40.5764 172.545 40.9108C172.321 41.247 172.055 41.5264 171.75 41.7533C171.445 41.9798 171.108 42.152 170.743 42.2654C170.377 42.3807 169.99 42.4395 169.585 42.4395C169.057 42.4376 168.578 42.3398 168.144 42.1479C167.71 41.9545 167.335 41.6811 167.02 41.3255C166.705 40.9689 166.463 40.5452 166.291 40.0539C166.119 39.5611 166.033 39.0158 166.031 38.4162C166.033 37.7862 166.124 37.2174 166.306 36.7072C166.486 36.1987 166.74 35.7625 167.069 35.3969C167.397 35.0334 167.783 34.7538 168.228 34.5584ZM45.3079 41.417C45.4875 41.368 45.646 41.3092 45.7847 41.243L45.9844 42.0639C45.8613 42.1286 45.6987 42.1873 45.4956 42.2442C45.2927 42.3008 45.0535 42.3479 44.7842 42.3848C44.5142 42.4198 44.2185 42.4376 43.8965 42.4395C43.335 42.4395 42.8188 42.3513 42.3474 42.1792C41.875 42.0054 41.4644 41.7492 41.1143 41.4095C40.7617 41.0708 40.4902 40.6524 40.2964 40.1536C40.103 39.6533 40.0051 39.0786 40.0012 38.4274C40.0037 37.804 40.103 37.2368 40.3025 36.7284C40.5 36.2218 40.7815 35.7843 41.147 35.4187C41.5127 35.0531 41.9468 34.7715 42.4512 34.5741C42.9561 34.3766 43.5151 34.2769 44.1304 34.2747C44.4556 34.2769 44.7427 34.296 44.9915 34.335C45.238 34.3725 45.4468 34.4191 45.6167 34.4722C45.7869 34.5269 45.9175 34.5775 46.0076 34.6263L45.7495 35.4594C45.5601 35.364 45.3318 35.2856 45.0632 35.2253C44.7954 35.164 44.4966 35.1331 44.1665 35.1312C43.7004 35.1312 43.2803 35.2034 42.9014 35.3478C42.5237 35.4928 42.199 35.7037 41.927 35.9834C41.6577 36.2609 41.448 36.6034 41.3018 37.0059C41.1567 37.4109 41.0823 37.8718 41.0808 38.3924C41.0823 39.0452 41.2024 39.6083 41.4404 40.0817C41.679 40.5567 42.0234 40.9223 42.4729 41.1801C42.9226 41.4383 43.468 41.5676 44.1077 41.5711C44.3206 41.5711 44.5278 41.558 44.7329 41.5302C44.9368 41.5033 45.1279 41.4658 45.3079 41.417ZM72.3826 41.417C72.562 41.368 72.7205 41.3092 72.8591 41.243L73.0588 42.0639C72.9355 42.1286 72.7734 42.1873 72.5701 42.2442C72.3669 42.3008 72.1279 42.3479 71.8584 42.3848C71.5886 42.4198 71.2932 42.4376 70.9707 42.4395C70.4092 42.4395 69.8936 42.3513 69.4221 42.1792C68.9492 42.0054 68.5386 41.7492 68.1887 41.4095C67.8362 41.0708 67.5645 40.6524 67.3711 40.1536C67.1777 39.6533 67.0796 39.0786 67.0759 38.4274C67.0781 37.804 67.1777 37.2368 67.3767 36.7284C67.5742 36.2218 67.8557 35.7843 68.2214 35.4187C68.5869 35.0531 69.021 34.7715 69.5254 34.5741C70.0305 34.3766 70.5894 34.2769 71.2051 34.2747C71.5298 34.2769 71.8169 34.296 72.0657 34.335C72.3123 34.3725 72.5212 34.4191 72.6909 34.4722C72.8616 34.5269 72.9922 34.5775 73.082 34.6263L72.8242 35.4594C72.6348 35.364 72.406 35.2856 72.1379 35.2253C71.8701 35.164 71.5713 35.1331 71.2407 35.1312C70.7749 35.1312 70.3545 35.2034 69.9758 35.3478C69.5979 35.4928 69.2732 35.7037 69.0017 35.9834C68.7319 36.2609 68.5227 36.6034 68.3765 37.0059C68.2312 37.4109 68.157 37.8718 68.1553 38.3924C68.157 39.0452 68.2769 39.6083 68.5151 40.0817C68.7534 40.5567 69.0977 40.9223 69.5474 41.1801C69.9971 41.4383 70.5422 41.5676 71.1819 41.5711C71.395 41.5711 71.6023 41.558 71.8074 41.5302C72.011 41.5033 72.2021 41.4658 72.3826 41.417ZM61.8418 42.3513C61.5759 42.3317 61.3572 42.3105 61.187 42.2867L61.187 34.521C61.3374 34.486 61.5115 34.4547 61.7131 34.4288C61.9121 34.4019 62.1252 34.3822 62.3545 34.3666C62.583 34.3528 62.8157 34.3447 63.0522 34.3447C63.3909 34.3447 63.6936 34.3644 63.9597 34.4059C64.2234 34.4469 64.46 34.5094 64.6655 34.5934C64.8706 34.6775 65.0525 34.7869 65.2109 34.92C65.418 35.0725 65.5806 35.2659 65.6997 35.4987C65.8171 35.7312 65.8774 36.0047 65.8794 36.3156C65.8774 36.5759 65.8228 36.8184 65.7153 37.0453C65.6074 37.2721 65.4531 37.4712 65.2539 37.6434C65.0542 37.8156 64.8181 37.9524 64.5425 38.0521L64.5425 38.0874C64.7317 38.1306 64.9233 38.2024 65.113 38.3043C65.3047 38.4062 65.4788 38.5368 65.6394 38.6993C65.7993 38.8593 65.9265 39.0552 66.0242 39.2796C66.1199 39.5049 66.1704 39.7649 66.1731 40.058C66.1704 40.3983 66.1084 40.7011 65.9868 40.9655C65.8662 41.2292 65.6997 41.4542 65.4924 41.642C65.2246 41.8942 64.8645 42.0795 64.4133 42.201C63.9636 42.322 63.4163 42.3807 62.7705 42.3807C62.4192 42.3789 62.1082 42.3692 61.8418 42.3513ZM6.85034 37.7355L6.85034 34.4034L11.4958 34.4034L11.4958 42.3104L10.4639 42.3104L10.4639 35.2603L7.85913 35.2603L7.85913 37.653C7.86133 37.9974 7.85547 38.3434 7.8418 38.6936C7.82983 39.0436 7.80273 39.3833 7.75952 39.7177C7.71851 40.0499 7.6543 40.3633 7.56763 40.6586C7.48193 40.9517 7.3667 41.2155 7.22168 41.4501C7.07544 41.683 6.89355 41.8764 6.67432 42.0289C6.57446 42.0933 6.46118 42.152 6.33057 42.2086C6.19922 42.2654 6.05859 42.3123 5.91016 42.3479C5.75928 42.3848 5.60889 42.4026 5.45435 42.4042L5.3252 41.5833C5.4873 41.5558 5.64185 41.5033 5.79077 41.4248C5.93945 41.3442 6.06055 41.2567 6.1582 41.1608C6.31494 41.0045 6.43994 40.8008 6.53369 40.5471C6.62744 40.293 6.69604 40.0092 6.74268 39.6942C6.7876 39.3799 6.81689 39.0552 6.83081 38.719C6.84644 38.3827 6.85254 38.054 6.85034 37.7355ZM18.1946 42.3104L17.3499 39.8236L14.5459 39.8236L13.7249 42.3104L12.6689 42.3104L15.3674 34.4034L16.5874 34.4034L19.2854 42.3104L18.1946 42.3104ZM22.98 42.3104L21.948 42.3104L21.948 35.2719L19.5435 35.2719L19.5435 34.4034L25.3972 34.4034L25.3972 35.2719L22.98 35.2719L22.98 42.3104ZM36.1187 39.753L33.491 34.4034L34.6526 34.4034L36.2244 37.7943C36.3237 38.0287 36.4219 38.2612 36.5156 38.4902C36.6094 38.7205 36.6995 38.9499 36.7876 39.1783L36.8225 39.1783C36.8928 38.9808 36.9675 38.7636 37.0454 38.5311C37.1238 38.2961 37.21 38.0383 37.3037 37.759L38.5469 34.4034L39.6265 34.4034L37.9609 38.4861C37.855 38.7524 37.7454 39.0218 37.6304 39.2974C37.5168 39.5711 37.3977 39.8411 37.2744 40.1052C37.1514 40.3689 37.0242 40.617 36.8909 40.852C36.7603 41.0864 36.623 41.2936 36.4822 41.4773C36.2322 41.8004 35.9583 42.0426 35.6653 42.2067C35.3723 42.3692 35.0491 42.451 34.6992 42.451C34.5659 42.451 34.4526 42.4451 34.3589 42.4336C34.2673 42.422 34.1892 42.4042 34.1245 42.3807L34.2183 41.5483C34.2651 41.5595 34.3179 41.5695 34.3806 41.5751C34.4436 41.5811 34.5178 41.5833 34.6055 41.5833C34.8066 41.5811 34.9905 41.5361 35.1528 41.452C35.3149 41.3661 35.4597 41.2567 35.5869 41.1198C35.7141 40.9827 35.8235 40.8383 35.9175 40.6817C36.0112 40.5273 36.0898 40.377 36.1541 40.2342C36.1951 40.148 36.2104 40.0695 36.2029 39.9977C36.1951 39.9252 36.1655 39.8452 36.1187 39.753ZM49.8081 42.3104L48.7756 42.3104L48.7756 35.2719L46.3713 35.2719L46.3713 34.4034L52.2253 34.4034L52.2253 35.2719L49.8081 35.2719L49.8081 42.3104ZM74.3489 42.3104L74.3489 34.4034L75.3694 34.4034L75.3694 37.9112L75.6863 37.9112L78.3962 34.4034L79.6162 34.4034L76.6248 38.0287C76.9512 38.0734 77.2327 38.1534 77.4692 38.2708C77.7058 38.3884 77.9075 38.5368 78.0754 38.7149C78.2451 38.8927 78.3906 39.0961 78.5115 39.3252C78.6345 39.5536 78.7439 39.8018 78.8418 40.0695C78.9414 40.3395 79.0376 40.5998 79.1274 40.8539C79.2173 41.1083 79.3071 41.3542 79.4009 41.597C79.4949 41.8373 79.5984 42.0761 79.7102 42.3104L78.6189 42.3104C78.5212 42.1286 78.4314 41.9333 78.3489 41.7261C78.2671 41.5164 78.189 41.3036 78.1145 41.0845C78.0405 40.8676 77.9661 40.6545 77.8918 40.4449C77.802 40.183 77.7002 39.9445 77.5828 39.7299C77.4675 39.5146 77.3264 39.3286 77.1606 39.1743C76.9944 39.0177 76.791 38.8987 76.5544 38.8127C76.3159 38.7287 76.0303 38.6855 75.698 38.6855L75.3694 38.6855L75.3694 42.3104L74.3489 42.3104ZM80.7068 42.3104L80.7068 34.4034L81.6689 34.4034L81.6689 37.7355C81.6689 38.1477 81.667 38.5427 81.6614 38.9205C81.6533 39.2974 81.6436 39.663 81.6296 40.0189C81.6165 40.3748 81.5986 40.7289 81.575 41.0789L81.6101 41.0905C81.8042 40.6817 82.0229 40.2596 82.2671 39.8271C82.5117 39.393 82.7776 38.9418 83.0652 38.4743L85.6226 34.4034L86.6428 34.4034L86.6428 42.3104L85.6807 42.3104L85.6807 38.9433C85.6807 38.519 85.6829 38.1265 85.687 37.7624C85.6929 37.4009 85.7004 37.0531 85.7141 36.7203C85.7278 36.39 85.7476 36.06 85.7744 35.7297L85.7395 35.7175C85.5442 36.154 85.3176 36.5956 85.0627 37.0434C84.8091 37.4909 84.5469 37.933 84.2729 38.3687L81.7976 42.3104L80.7068 42.3104ZM89.4468 37.759L92.5085 37.759L92.5085 38.6036L89.4468 38.6036L89.4468 41.4542L92.8723 41.4542L92.8723 42.3104L88.4143 42.3104L88.4143 34.4034L92.6965 34.4034L92.6965 35.2603L89.4468 35.2603L89.4468 37.759ZM158.84 42.3104L158.84 34.4034L159.872 34.4034L159.872 37.7118L163.697 37.7118L163.697 34.4034L164.729 34.4034L164.729 42.3104L163.697 42.3104L163.697 38.6036L159.872 38.6036L159.872 42.3104L158.84 42.3104ZM176.741 38.0406L173.949 34.4034L175.134 34.4034L177.585 37.9112L177.903 37.9112L177.903 34.4034L178.888 34.4034L178.888 37.9112L179.205 37.9112L181.657 34.4034L182.841 34.4034L180.038 38.0406C180.346 38.0693 180.615 38.1402 180.841 38.2474C181.068 38.3574 181.263 38.5002 181.427 38.6758C181.592 38.8537 181.734 39.0593 181.856 39.2933C181.977 39.5283 182.087 39.7864 182.184 40.0695C182.269 40.3202 182.35 40.5705 182.427 40.8227C182.503 41.0748 182.585 41.3255 182.669 41.5736C182.753 41.8217 182.851 42.0679 182.958 42.3104L181.915 42.3104C181.825 42.1326 181.742 41.9351 181.668 41.7198C181.595 41.5048 181.525 41.2895 181.461 41.0708C181.395 40.852 181.332 40.6464 181.269 40.4571C181.178 40.1852 181.077 39.943 180.972 39.7236C180.864 39.5064 180.738 39.3211 180.589 39.1668C180.44 39.0121 180.256 38.8927 180.039 38.8105C179.821 38.7286 179.554 38.6855 179.24 38.6855L178.888 38.6855L178.888 42.3104L177.903 42.3104L177.903 38.6855L177.539 38.6855C177.224 38.6855 176.958 38.7286 176.741 38.8105C176.522 38.8927 176.338 39.0121 176.19 39.1668C176.041 39.3211 175.914 39.5064 175.806 39.7236C175.701 39.943 175.601 40.1852 175.509 40.4571C175.443 40.6464 175.378 40.852 175.312 41.0708C175.246 41.2895 175.175 41.5048 175.103 41.7198C175.028 41.9351 174.95 42.1326 174.864 42.3104L173.82 42.3104C173.932 42.0679 174.033 41.8217 174.121 41.5736C174.209 41.3255 174.293 41.0767 174.372 40.8267C174.452 40.5764 174.534 40.328 174.618 40.0817C174.715 39.8002 174.825 39.5421 174.944 39.309C175.065 39.0764 175.206 38.8714 175.366 38.6952C175.529 38.519 175.722 38.3768 175.945 38.2652C176.17 38.1534 176.434 38.0793 176.741 38.0406ZM183.979 42.3104L183.979 34.4034L184.941 34.4034L184.941 37.7355C184.941 38.1477 184.939 38.5427 184.933 38.9205C184.925 39.2974 184.915 39.663 184.902 40.0189C184.888 40.3748 184.87 40.7289 184.847 41.0789L184.882 41.0905C185.076 40.6817 185.295 40.2596 185.539 39.8271C185.783 39.393 186.05 38.9418 186.337 38.4743L188.894 34.4034L189.915 34.4034L189.915 42.3104L188.952 42.3104L188.952 38.9433C188.952 38.519 188.955 38.1265 188.959 37.7624C188.965 37.4009 188.972 37.0531 188.986 36.7203C189 36.39 189.019 36.06 189.046 35.7297L189.011 35.7175C188.816 36.154 188.589 36.5956 188.335 37.0434C188.081 37.4909 187.819 37.933 187.545 38.3687L185.07 42.3104L183.979 42.3104ZM30.3477 35.28C30.0774 35.1584 29.7725 35.0978 29.4321 35.0956C29.0918 35.0978 28.7871 35.1565 28.5156 35.2734C28.2437 35.3893 28.0049 35.5515 27.8015 35.759C27.5984 35.9678 27.4285 36.2103 27.293 36.4862C27.1567 36.7637 27.0547 37.0646 26.9888 37.3871C26.9199 37.7102 26.8865 38.0465 26.8865 38.3924C26.8865 38.7343 26.9241 39.0633 26.9944 39.3799C27.0662 39.6964 27.1721 39.9896 27.3127 40.2596C27.4514 40.5273 27.6238 40.7639 27.8293 40.9655C28.0342 41.1664 28.269 41.323 28.5349 41.4364C28.8013 41.5483 29.0959 41.6045 29.4204 41.607C29.8252 41.603 30.1853 41.5164 30.4995 41.3467C30.8145 41.1745 31.0786 40.938 31.2957 40.6367C31.5105 40.3355 31.6746 39.988 31.7864 39.593C31.8979 39.198 31.9546 38.7737 31.9546 38.3221C31.9546 38.0034 31.9211 37.6884 31.8567 37.3774C31.7905 37.0687 31.6907 36.7753 31.5576 36.5015C31.4248 36.2281 31.2568 35.9853 31.0552 35.7744C30.8535 35.565 30.6191 35.399 30.3477 35.28ZM57.1755 35.28C56.9055 35.1584 56.6003 35.0978 56.2603 35.0956C55.9199 35.0978 55.6152 35.1565 55.3435 35.2734C55.0718 35.3893 54.8328 35.5515 54.6296 35.759C54.426 35.9678 54.2563 36.2103 54.1211 36.4862C53.9846 36.7637 53.8828 37.0646 53.8164 37.3871C53.748 37.7102 53.7146 38.0465 53.7146 38.3924C53.7146 38.7343 53.7522 39.0633 53.8223 39.3799C53.8943 39.6964 54.0002 39.9896 54.1409 40.2596C54.2795 40.5273 54.4517 40.7639 54.657 40.9655C54.8621 41.1664 55.0969 41.323 55.363 41.4364C55.6289 41.5483 55.9238 41.6045 56.2485 41.607C56.6533 41.603 57.0132 41.5164 57.3276 41.3467C57.6426 41.1745 57.9067 40.938 58.1238 40.6367C58.3386 40.3355 58.5027 39.988 58.6145 39.593C58.7261 39.198 58.7827 38.7737 58.7827 38.3221C58.7827 38.0034 58.749 37.6884 58.6846 37.3774C58.6184 37.0687 58.5188 36.7753 58.3857 36.5015C58.2529 36.2281 58.0847 35.9853 57.8833 35.7744C57.6816 35.565 57.4473 35.399 57.1755 35.28ZM170.571 35.28C170.301 35.1584 169.996 35.0978 169.656 35.0956C169.315 35.0978 169.011 35.1565 168.739 35.2734C168.467 35.3893 168.228 35.5515 168.025 35.759C167.822 35.9678 167.652 36.2103 167.516 36.4862C167.38 36.7637 167.278 37.0646 167.212 37.3871C167.143 37.7102 167.11 38.0465 167.11 38.3924C167.11 38.7343 167.147 39.0633 167.218 39.3799C167.29 39.6964 167.396 39.9896 167.536 40.2596C167.675 40.5273 167.847 40.7639 168.053 40.9655C168.258 41.1664 168.492 41.323 168.759 41.4364C169.024 41.5483 169.319 41.6045 169.644 41.607C170.049 41.603 170.408 41.5164 170.723 41.3467C171.038 41.1745 171.302 40.938 171.519 40.6367C171.734 40.3355 171.898 39.988 172.01 39.593C172.121 39.198 172.178 38.7737 172.178 38.3221C172.178 38.0034 172.145 37.6884 172.08 37.3774C172.014 37.0687 171.914 36.7753 171.781 36.5015C171.648 36.2281 171.48 35.9853 171.279 35.7744C171.077 35.565 170.843 35.399 170.571 35.28ZM62.5437 35.1525C62.3994 35.1666 62.2878 35.1819 62.2075 35.2015L62.2075 37.759L63.1348 37.759C63.4922 37.7568 63.7974 37.698 64.0496 37.5805C64.3035 37.4655 64.4973 37.3071 64.6321 37.1078C64.7668 36.9065 64.8352 36.6778 64.8352 36.4215C64.8337 36.1165 64.7612 35.87 64.6184 35.6806C64.4756 35.4887 64.2747 35.35 64.0161 35.2622C63.76 35.174 63.4573 35.1291 63.1108 35.1312C62.8784 35.1312 62.6885 35.1388 62.5437 35.1525ZM15.5315 36.7384L14.7571 39.0258L17.1504 39.0258L16.364 36.7496C16.2783 36.4918 16.2024 36.2453 16.1377 36.0072C16.0732 35.7687 16.0105 35.5337 15.9536 35.3069L15.9304 35.3069C15.8738 35.5356 15.813 35.7722 15.7488 36.0128C15.6858 36.2553 15.6133 36.4959 15.5315 36.7384ZM124.045 39.3928C123.071 38.6784 120.472 39.1331 120.472 39.1331C120.472 39.1331 120.472 38.4834 121.382 38.0288C122.17 37.6344 123.057 38.0708 124.253 38.6596C124.436 38.7497 124.626 38.8433 124.824 38.9381C125.766 39.3887 126.734 38.6772 127.777 37.9107C128.388 37.4615 129.024 36.9935 129.697 36.7294C131.004 36.2161 132.21 36.776 133.34 37.3005C133.782 37.5059 134.213 37.7058 134.634 37.8338C135.362 38.0555 135.89 37.7674 136.662 37.3462C137.472 36.9038 138.551 36.3146 140.415 36.015C144.053 35.4304 148.015 36.08 150.678 36.6647C153.342 37.2491 153.082 38.8081 152.562 40.2375C152.215 41.1935 150.907 40.4922 149.049 39.4953C148.13 39.0022 147.076 38.4367 145.937 37.9638C142.494 36.5347 138.401 37.5741 136.517 38.5484C134.772 39.4511 133.863 38.9602 132.189 38.0564C132.056 37.9846 131.919 37.9102 131.775 37.8338C129.921 36.8452 128.832 37.7372 127.221 39.0567C127.138 39.1244 127.054 39.1933 126.968 39.2631C125.445 40.5042 125.098 40.2264 124.395 39.6637C124.288 39.5785 124.173 39.4868 124.045 39.3928ZM63.0522 38.5215L62.2075 38.5215L62.2075 41.5361C62.3132 41.5539 62.4363 41.5655 62.5791 41.5736C62.72 41.5792 62.8826 41.5833 63.0637 41.5833C63.3296 41.5851 63.5845 41.558 63.8264 41.5048C64.0691 41.452 64.2837 41.3661 64.4756 41.247C64.6655 41.128 64.8159 40.9689 64.9253 40.7714C65.0347 40.5746 65.0916 40.3314 65.0933 40.0464C65.0916 39.7805 65.0369 39.5496 64.9314 39.358C64.8254 39.1646 64.6787 39.0061 64.4912 38.883C64.3035 38.7599 64.0869 38.6683 63.842 38.6096C63.5959 38.5508 63.3337 38.5215 63.0522 38.5215Z" clip-rule="evenodd" fill="#1F1C21" fill-opacity="1.000000" fill-rule="evenodd"/>
</svg>
