<svg width="64.000000" height="63.202759" viewBox="0 0 64 63.2028" fill="none" xmlns="http://www.w3.org/2000/svg" xmlns:xlink="http://www.w3.org/1999/xlink">
	<desc>
			Created with Pixso.
	</desc>
	<defs/>
	<path id="Vector" d="M63.22 35.19C62.86 33.91 62.53 32.7 62.53 31.6C62.53 30.49 62.86 29.28 63.22 28C63.79 25.97 64.38 23.86 63.67 21.82C62.94 19.69 61.13 18.29 59.37 16.95C58.32 16.14 57.32 15.38 56.68 14.54C56.02 13.69 55.56 12.55 55.07 11.34C54.26 9.36 53.42 7.3 51.55 6.02C49.71 4.75 47.42 4.62 45.2 4.51C43.82 4.43 42.51 4.36 41.42 4.03C40.39 3.71 39.33 3.06 38.21 2.37C36.41 1.26 34.36 0 31.99 0C29.63 0 27.58 1.26 25.78 2.37C24.66 3.06 23.6 3.72 22.57 4.03C21.48 4.37 20.17 4.44 18.79 4.51C16.57 4.63 14.28 4.75 12.43 6.02C10.57 7.31 9.73 9.36 8.92 11.34C8.43 12.55 7.96 13.69 7.31 14.55C6.66 15.39 5.67 16.15 4.62 16.96C2.86 18.3 1.05 19.69 0.32 21.82C-0.39 23.87 0.2 25.97 0.77 28.01C1.13 29.29 1.46 30.49 1.46 31.6C1.46 32.7 1.13 33.91 0.77 35.19C0.2 37.23 -0.39 39.33 0.32 41.38C1.05 43.51 2.86 44.9 4.62 46.24C5.67 47.05 6.66 47.81 7.31 48.65C7.97 49.5 8.43 50.65 8.92 51.85C9.73 53.84 10.57 55.89 12.44 57.18C14.28 58.45 16.57 58.57 18.79 58.69C20.17 58.76 21.48 58.83 22.57 59.17C23.6 59.48 24.65 60.13 25.77 60.82C27.58 61.94 29.63 63.2 31.99 63.2C34.36 63.2 36.41 61.94 38.22 60.82C39.34 60.13 40.39 59.48 41.42 59.17C42.51 58.83 43.82 58.76 45.2 58.69C47.42 58.57 49.72 58.45 51.55 57.18C53.43 55.89 54.26 53.83 55.07 51.85C55.56 50.64 56.02 49.5 56.68 48.65C57.32 47.81 58.32 47.05 59.37 46.24C61.13 44.9 62.94 43.51 63.67 41.38C64.38 39.33 63.79 37.23 63.22 35.19ZM61.04 40.5C60.58 41.84 59.16 42.93 57.67 44.07C56.52 44.95 55.33 45.86 54.46 46.99C53.58 48.14 53.02 49.5 52.49 50.83C51.8 52.51 51.15 54.1 49.96 54.93C48.77 55.75 46.97 55.84 45.06 55.94C43.56 56.02 42.02 56.1 40.59 56.54C39.23 56.96 37.96 57.74 36.74 58.49C35.11 59.5 33.56 60.45 31.99 60.45C30.42 60.45 28.88 59.5 27.25 58.49C26.03 57.74 24.77 56.96 23.4 56.54C21.97 56.1 20.43 56.02 18.93 55.94C17.02 55.84 15.22 55.74 14.03 54.93C12.84 54.1 12.19 52.51 11.5 50.83C10.97 49.5 10.41 48.14 9.53 46.99C8.66 45.86 7.47 44.95 6.32 44.07C4.83 42.92 3.41 41.84 2.95 40.5C2.52 39.25 2.97 37.63 3.45 35.92C3.84 34.52 4.24 33.07 4.24 31.6C4.24 30.12 3.84 28.67 3.45 27.27C2.97 25.56 2.52 23.94 2.95 22.69C3.41 21.35 4.83 20.27 6.32 19.12C7.47 18.24 8.66 17.33 9.52 16.2C10.41 15.05 10.97 13.69 11.51 12.36C12.19 10.68 12.84 9.09 14.03 8.27C15.22 7.45 17.02 7.35 18.94 7.25C20.43 7.17 21.97 7.09 23.4 6.65C24.77 6.23 26.03 5.45 27.25 4.7C28.88 3.69 30.42 2.74 31.99 2.74C33.56 2.74 35.11 3.69 36.74 4.7C37.96 5.46 39.22 6.23 40.59 6.65C42.02 7.09 43.56 7.17 45.05 7.25C46.97 7.35 48.77 7.45 49.96 8.27C51.15 9.09 51.8 10.68 52.48 12.36C53.02 13.69 53.58 15.06 54.46 16.21C55.33 17.33 56.52 18.24 57.67 19.12C59.16 20.27 60.58 21.35 61.04 22.7C61.47 23.95 61.01 25.56 60.54 27.28C60.15 28.68 59.74 30.12 59.74 31.6C59.74 33.07 60.14 34.52 60.54 35.92C61.02 37.63 61.47 39.25 61.04 40.5Z" fill="#FFFFFF" fill-opacity="1.000000" fill-rule="nonzero"/>
	<path id="Vector" d="M31.99 10.99C20.49 10.99 11.13 20.23 11.13 31.6C11.13 42.96 20.49 52.21 31.99 52.21C43.5 52.21 52.86 42.96 52.86 31.6C52.86 20.23 43.5 10.99 31.99 10.99ZM31.99 49.46C22.02 49.46 13.91 41.44 13.91 31.6C13.91 21.75 22.02 13.73 31.99 13.73C37.14 13.73 41.77 15.88 45.07 19.29L31.81 37.72L24.63 30.62C24.09 30.09 23.21 30.09 22.66 30.62C22.12 31.16 22.12 32.03 22.66 32.57L31.01 40.81C31.27 41.07 31.63 41.21 31.99 41.21C32.03 41.21 32.07 41.21 32.11 41.21C32.52 41.17 32.89 40.96 33.13 40.63L46.9 21.5C48.9 24.37 50.08 27.85 50.08 31.6C50.08 41.44 41.97 49.46 31.99 49.46Z" fill="#FFFFFF" fill-opacity="1.000000" fill-rule="nonzero"/>
</svg>
